<?xml version="1.0" encoding="UTF-8"?>
<svg id="Layer_1" data-name="Layer 1" xmlns="http://www.w3.org/2000/svg" viewBox="0 0 1788 638.6">
  <defs>
    <style>
      .cls-1 {
        letter-spacing: -.03em;
      }

      .cls-2 {
        fill: #fff;
        font-family: MADECarvingSoftPERSONALUSE-Bold, 'MADE Carving Soft PERSONAL USE';
        font-size: 336.47px;
        font-weight: 700;
      }

      .cls-3 {
        letter-spacing: 0em;
      }

      .cls-4 {
        fill: #6f40b2;
        fill-rule: evenodd;
        stroke-width: 0px;
      }
    </style>
  </defs>
  <text class="cls-2" transform="translate(56.51 390.8) scale(.98 1)"><tspan x="0" y="0">hunch</tspan><tspan class="cls-1" x="954.2" y="0">e</tspan><tspan class="cls-3" x="1138.58" y="0">x</tspan></text>
  <path class="cls-4" d="m1539.6,113.37c-9.72,1.44-11.98,1.9-22.53,4.62-56.67,14.58-106.21,58.29-127.89,112.85-.97,2.44-2.12,5.3-2.56,6.35-12,28.79-14.4,74.62-5.72,108.86,24.52,96.69,125.96,162.69,218.36,142.09,9.67-2.15,18.93-4.61,22.85-6.05,120.91-44.43,168.6-180.22,100.06-284.87-20.87-31.87-55.7-60.02-89.94-72.7-3.82-1.42-7.52-2.84-8.22-3.16-16.64-7.74-59.03-11.75-84.42-7.98m9.2,30.59c-154.02,18.34-194.78,216.78-60.52,294.65,39.14,22.7,95.51,26.19,135.1,8.37,23.14-10.42,35.75-18.92,51.76-34.9,10.33-10.32,15.26-16.5,24.01-30.15,5.82-9.07,13.11-25.54,16.23-36.68.9-3.22,1.91-6.72,2.23-7.77,15.09-49.06-4.74-113.67-46.89-152.82-31.17-28.95-80.96-45.57-121.92-40.69m7.3,41.89c-8.96.72-28.66,5.12-32.69,7.3-.52.28-2.38,1.12-4.13,1.85-3.03,1.27-8.54,4.02-12.75,6.37-41.76,23.22-64.75,76.94-53.5,125,3.21,13.69,14.35,37.94,19.55,42.53.2.17,1.98,2.32,3.96,4.76,56.19,69.44,167.77,48.19,196.57-37.45,25.86-76.88-36.37-156.84-117.02-150.36m6.92,21.04c-1.46.97-2.03,3.25-2.76,10.94-1.95,20.53-3.24,33.15-3.9,38.13l-.72,5.44-2.86.76c-45.1,12.06-38.95,79.27,7.66,83.79,49.87,4.83,64.42-69.36,16.37-83.46-2.23-.65-4.14-1.47-4.25-1.82-.29-.92-3.34-30.99-4.09-40.31-.89-11.01-1.19-12.61-2.55-13.34-1.38-.74-1.96-.77-2.9-.14m-56.19,15.22c-62.78,42.41-47.22,146.41,25.51,170.5,102.78,34.04,177.32-99.15,93.78-167.57-4.73-3.87-5.34-3.87-8.04.08-.77,1.13-3.11,4.02-5.19,6.43-4.51,5.21-4.42,4.64-1.09,7.09,60.82,44.57,24.91,143.03-50.91,139.58-70.93-3.23-101.11-94.14-45.73-137.74,5.34-4.21,5.64-5.57,1.9-8.67-.21-.17-2.26-2.66-4.55-5.51-4.12-5.14-4.18-5.19-5.68-4.17"/>
</svg>